<svg height="24" viewBox="0 0 24 24" width="24" aria-hidden="true" xmlns="http://www.w3.org/2000/svg"><path fill ="#f94c57" d="M9.92 11.354c.966 0 1.453-.487 1.453-1.49v-3.4c0-1.004-.487-1.483-1.453-1.483H6.452C5.487 4.981 5 5.46 5 6.464v3.4c0 1.003.487 1.49 1.452 1.49zm7.628 0c.965 0 1.452-.487 1.452-1.49v-3.4c0-1.004-.487-1.483-1.452-1.483h-3.46c-.974 0-1.46.479-1.46 1.483v3.4c0 1.003.486 1.49 1.46 1.49zm-7.65-1.073h-3.43c-.266 0-.396-.137-.396-.418v-3.4c0-.273.13-.41.396-.41h3.43c.265 0 .402.137.402.41v3.4c0 .281-.137.418-.403.418zm7.634 0h-3.43c-.273 0-.402-.137-.402-.418v-3.4c0-.273.129-.41.403-.41h3.43c.265 0 .395.137.395.41v3.4c0 .281-.13.418-.396.418zm-7.612 8.7c.966 0 1.453-.48 1.453-1.483v-3.407c0-.996-.487-1.483-1.453-1.483H6.452c-.965 0-1.452.487-1.452 1.483v3.407c0 1.004.487 1.483 1.452 1.483zm7.628 0c.965 0 1.452-.48 1.452-1.483v-3.407c0-.996-.487-1.483-1.452-1.483h-3.46c-.974 0-1.46.487-1.46 1.483v3.407c0 1.004.486 1.483 1.46 1.483zm-7.65-1.072h-3.43c-.266 0-.396-.137-.396-.41v-3.4c0-.282.13-.418.396-.418h3.43c.265 0 .402.136.402.418v3.4c0 .273-.137.41-.403.41zm7.634 0h-3.43c-.273 0-.402-.137-.402-.41v-3.4c0-.282.129-.418.403-.418h3.43c.265 0 .395.136.395.418v3.4c0 .273-.13.41-.396.41z" fill-opacity=".95"></path></svg>