<svg width="24" height="24" viewBox="0 0 24 24" xmlns="http://www.w3.org/2000/svg" aria-hidden="true"><path fill ="#f94c57" d="M19.359 18.57C21.033 16.818 22 14.461 22 11.89s-.967-4.93-2.641-6.68c-.276-.292-.653-.26-.868-.023-.222.246-.176.591.085.868 1.466 1.535 2.272 3.593 2.272 5.835 0 2.241-.806 4.3-2.272 5.835-.261.268-.307.621-.085.86.215.245.592.276.868-.016zm-13.85.014c.222-.238.176-.59-.085-.86-1.474-1.535-2.272-3.593-2.272-5.834 0-2.242.798-4.3 2.272-5.835.261-.277.307-.622.085-.868-.215-.238-.592-.269-.868.023C2.967 6.96 2 9.318 2 11.89s.967 4.929 2.641 6.68c.276.29.653.26.868.014zm1.957-1.873c.223-.253.162-.583-.1-.867-.951-1.068-1.473-2.45-1.473-3.954 0-1.505.522-2.887 1.474-3.954.26-.284.322-.614.1-.876-.23-.26-.622-.26-.891.039-1.175 1.274-1.827 2.963-1.827 4.79 0 1.82.652 3.517 1.827 4.784.269.3.66.307.89.038zm9.958-.038c1.175-1.267 1.827-2.964 1.827-4.783 0-1.828-.652-3.517-1.827-4.791-.269-.3-.66-.3-.89-.039-.23.262-.162.592.092.876.96 1.067 1.481 2.449 1.481 3.954 0 1.504-.522 2.886-1.481 3.954-.254.284-.323.614-.092.867.23.269.621.261.89-.038zm-8.061-1.966c.23-.26.13-.568-.092-.883-.415-.522-.63-1.197-.63-1.934 0-.737.215-1.413.63-1.943.222-.307.322-.614.092-.875s-.653-.261-.906.054a4.385 4.385 0 0 0-.968 2.764 4.38 4.38 0 0 0 .968 2.756c.253.322.675.322.906.061zm6.18-.061a4.38 4.38 0 0 0 .968-2.756 4.385 4.385 0 0 0-.968-2.764c-.253-.315-.675-.315-.906-.054-.23.261-.138.568.092.875.415.53.63 1.206.63 1.943 0 .737-.215 1.412-.63 1.934-.23.315-.322.622-.092.883s.653.261.906-.061zm-3.547-.967c.96 0 1.789-.814 1.789-1.797s-.83-1.789-1.789-1.789c-.96 0-1.781.806-1.781 1.789 0 .983.821 1.797 1.781 1.797z"></path></svg>